# Unit icosphere (1 subdivision, 80 faces); vn = vertex position -> smooth.
v -0.525731112 0.850650808 0.000000000
v 0.525731112 0.850650808 0.000000000
v -0.525731112 -0.850650808 0.000000000
v 0.525731112 -0.850650808 0.000000000
v 0.000000000 -0.525731112 0.850650808
v 0.000000000 0.525731112 0.850650808
v 0.000000000 -0.525731112 -0.850650808
v 0.000000000 0.525731112 -0.850650808
v 0.850650808 0.000000000 -0.525731112
v 0.850650808 0.000000000 0.525731112
v -0.850650808 0.000000000 -0.525731112
v -0.850650808 0.000000000 0.525731112
v -0.809016994 0.500000000 0.309016994
v -0.500000000 0.309016994 0.809016994
v -0.309016994 0.809016994 0.500000000
v 0.309016994 0.809016994 0.500000000
v 0.000000000 1.000000000 0.000000000
v 0.309016994 0.809016994 -0.500000000
v -0.309016994 0.809016994 -0.500000000
v -0.500000000 0.309016994 -0.809016994
v -0.809016994 0.500000000 -0.309016994
v -1.000000000 0.000000000 0.000000000
v 0.500000000 0.309016994 0.809016994
v 0.809016994 0.500000000 0.309016994
v -0.500000000 -0.309016994 0.809016994
v 0.000000000 0.000000000 1.000000000
v -0.809016994 -0.500000000 -0.309016994
v -0.809016994 -0.500000000 0.309016994
v 0.000000000 0.000000000 -1.000000000
v -0.500000000 -0.309016994 -0.809016994
v 0.809016994 0.500000000 -0.309016994
v 0.500000000 0.309016994 -0.809016994
v 0.809016994 -0.500000000 0.309016994
v 0.500000000 -0.309016994 0.809016994
v 0.309016994 -0.809016994 0.500000000
v -0.309016994 -0.809016994 0.500000000
v 0.000000000 -1.000000000 0.000000000
v -0.309016994 -0.809016994 -0.500000000
v 0.309016994 -0.809016994 -0.500000000
v 0.500000000 -0.309016994 -0.809016994
v 0.809016994 -0.500000000 -0.309016994
v 1.000000000 0.000000000 0.000000000
vn -0.525731112 0.850650808 0.000000000
vn 0.525731112 0.850650808 0.000000000
vn -0.525731112 -0.850650808 0.000000000
vn 0.525731112 -0.850650808 0.000000000
vn 0.000000000 -0.525731112 0.850650808
vn 0.000000000 0.525731112 0.850650808
vn 0.000000000 -0.525731112 -0.850650808
vn 0.000000000 0.525731112 -0.850650808
vn 0.850650808 0.000000000 -0.525731112
vn 0.850650808 0.000000000 0.525731112
vn -0.850650808 0.000000000 -0.525731112
vn -0.850650808 0.000000000 0.525731112
vn -0.809016994 0.500000000 0.309016994
vn -0.500000000 0.309016994 0.809016994
vn -0.309016994 0.809016994 0.500000000
vn 0.309016994 0.809016994 0.500000000
vn 0.000000000 1.000000000 0.000000000
vn 0.309016994 0.809016994 -0.500000000
vn -0.309016994 0.809016994 -0.500000000
vn -0.500000000 0.309016994 -0.809016994
vn -0.809016994 0.500000000 -0.309016994
vn -1.000000000 0.000000000 0.000000000
vn 0.500000000 0.309016994 0.809016994
vn 0.809016994 0.500000000 0.309016994
vn -0.500000000 -0.309016994 0.809016994
vn 0.000000000 0.000000000 1.000000000
vn -0.809016994 -0.500000000 -0.309016994
vn -0.809016994 -0.500000000 0.309016994
vn 0.000000000 0.000000000 -1.000000000
vn -0.500000000 -0.309016994 -0.809016994
vn 0.809016994 0.500000000 -0.309016994
vn 0.500000000 0.309016994 -0.809016994
vn 0.809016994 -0.500000000 0.309016994
vn 0.500000000 -0.309016994 0.809016994
vn 0.309016994 -0.809016994 0.500000000
vn -0.309016994 -0.809016994 0.500000000
vn 0.000000000 -1.000000000 0.000000000
vn -0.309016994 -0.809016994 -0.500000000
vn 0.309016994 -0.809016994 -0.500000000
vn 0.500000000 -0.309016994 -0.809016994
vn 0.809016994 -0.500000000 -0.309016994
vn 1.000000000 0.000000000 0.000000000
f 1//1 13//13 15//15
f 12//12 14//14 13//13
f 6//6 15//15 14//14
f 13//13 14//14 15//15
f 1//1 15//15 17//17
f 6//6 16//16 15//15
f 2//2 17//17 16//16
f 15//15 16//16 17//17
f 1//1 17//17 19//19
f 2//2 18//18 17//17
f 8//8 19//19 18//18
f 17//17 18//18 19//19
f 1//1 19//19 21//21
f 8//8 20//20 19//19
f 11//11 21//21 20//20
f 19//19 20//20 21//21
f 1//1 21//21 13//13
f 11//11 22//22 21//21
f 12//12 13//13 22//22
f 21//21 22//22 13//13
f 2//2 16//16 24//24
f 6//6 23//23 16//16
f 10//10 24//24 23//23
f 16//16 23//23 24//24
f 6//6 14//14 26//26
f 12//12 25//25 14//14
f 5//5 26//26 25//25
f 14//14 25//25 26//26
f 12//12 22//22 28//28
f 11//11 27//27 22//22
f 3//3 28//28 27//27
f 22//22 27//27 28//28
f 11//11 20//20 30//30
f 8//8 29//29 20//20
f 7//7 30//30 29//29
f 20//20 29//29 30//30
f 8//8 18//18 32//32
f 2//2 31//31 18//18
f 9//9 32//32 31//31
f 18//18 31//31 32//32
f 4//4 33//33 35//35
f 10//10 34//34 33//33
f 5//5 35//35 34//34
f 33//33 34//34 35//35
f 4//4 35//35 37//37
f 5//5 36//36 35//35
f 3//3 37//37 36//36
f 35//35 36//36 37//37
f 4//4 37//37 39//39
f 3//3 38//38 37//37
f 7//7 39//39 38//38
f 37//37 38//38 39//39
f 4//4 39//39 41//41
f 7//7 40//40 39//39
f 9//9 41//41 40//40
f 39//39 40//40 41//41
f 4//4 41//41 33//33
f 9//9 42//42 41//41
f 10//10 33//33 42//42
f 41//41 42//42 33//33
f 5//5 34//34 26//26
f 10//10 23//23 34//34
f 6//6 26//26 23//23
f 34//34 23//23 26//26
f 3//3 36//36 28//28
f 5//5 25//25 36//36
f 12//12 28//28 25//25
f 36//36 25//25 28//28
f 7//7 38//38 30//30
f 3//3 27//27 38//38
f 11//11 30//30 27//27
f 38//38 27//27 30//30
f 9//9 40//40 32//32
f 7//7 29//29 40//40
f 8//8 32//32 29//29
f 40//40 29//29 32//32
f 10//10 42//42 24//24
f 9//9 31//31 42//42
f 2//2 24//24 31//31
f 42//42 31//31 24//24
